<?xml version="1.0" encoding="UTF-8" standalone="no"?>
<!-- Created with Inkscape (http://www.inkscape.org/) -->

<svg
   xmlns:dc="http://purl.org/dc/elements/1.1/"
   xmlns:cc="http://creativecommons.org/ns#"
   xmlns:rdf="http://www.w3.org/1999/02/22-rdf-syntax-ns#"
   xmlns:svg="http://www.w3.org/2000/svg"
   xmlns="http://www.w3.org/2000/svg"
   xmlns:sodipodi="http://sodipodi.sourceforge.net/DTD/sodipodi-0.dtd"
   xmlns:inkscape="http://www.inkscape.org/namespaces/inkscape"
   width="990.52893mm"
   height="251.44582mm"
   viewBox="0 0 990.52893 251.44582"
   version="1.1"
   id="svg8"
   inkscape:version="0.92.3 (2405546, 2018-03-11)"
   sodipodi:docname="logo.svg"
   inkscape:export-filename="C:\Sites\gimnet\app\assets\images\logo.png"
   inkscape:export-xdpi="19"
   inkscape:export-ydpi="19">
  <defs
     id="defs2" />
  <sodipodi:namedview
     id="base"
     pagecolor="#ffffff"
     bordercolor="#666666"
     borderopacity="1.0"
     inkscape:pageopacity="0.0"
     inkscape:pageshadow="2"
     inkscape:zoom="0.175"
     inkscape:cx="-217.58937"
     inkscape:cy="-344.898"
     inkscape:document-units="mm"
     inkscape:current-layer="g917"
     showgrid="false"
     fit-margin-top="0"
     fit-margin-left="0"
     fit-margin-right="0"
     fit-margin-bottom="0"
     inkscape:window-width="2560"
     inkscape:window-height="1315"
     inkscape:window-x="-13"
     inkscape:window-y="-13"
     inkscape:window-maximized="1" />
  <metadata
     id="metadata5">
    <rdf:RDF>
      <cc:Work
         rdf:about="">
        <dc:format>image/svg+xml</dc:format>
        <dc:type
           rdf:resource="http://purl.org/dc/dcmitype/StillImage" />
        <dc:title />
      </cc:Work>
    </rdf:RDF>
  </metadata>
  <g
     inkscape:label="Layer 1"
     inkscape:groupmode="layer"
     id="layer1"
     transform="translate(1428.9431,-222.77447)">
    <g
       id="g917"
       transform="translate(0,8.3154759)">
      <g
         transform="matrix(0.93889238,0,0,0.93889238,-196.23796,169.67857)"
         id="g901"
         style="fill:#e6e6e6">
        <g
           id="g852"
           transform="translate(-887.26132,46.597386)"
           style="fill:#e6e6e6">
          <path
             inkscape:connector-curvature="0"
             id="path826"
             d="m 103.5064,152.18618 c -0.53344,-0.24184 -15.046727,-5.98107 -19.711457,-7.79482 -1.38244,-0.53753 -5.66869,-2.22548 -9.525,-3.75102 -13.81856,-5.46654 -23.24343,-9.18891 -28.83958,-11.39024 -3.1287,-1.23073 -8.54604,-3.36678 -12.03854,-4.74679 -3.4925,-1.38002 -9.08844,-3.58166 -12.43542,-4.89253 -3.34698,-1.31088 -6.74026,-2.65915 -7.54062,-2.99617 -0.80037,-0.33702 -2.22912,-0.90899 -3.175,-1.27105 -2.70665,-1.03604 -7.22964,-2.87022 -7.74134,-3.13929 -0.40375,-0.21231 0.084,-0.96937 3.68778,-5.72425 2.28419,-3.01377 4.93947,-6.491612 5.90062,-7.728542 0.96115,-1.23692 3.06079,-3.97536 4.66588,-6.08541 1.60508,-2.11006 3.73458,-4.90802 4.73222,-6.217706 0.99764,-1.30969 2.94604,-3.86953 4.32978,-5.68854 1.38373,-1.81901 3.11532,-4.0812 3.84796,-5.02709 1.33349,-1.72161 3.12911,-4.07367 10.67345,-13.98102 2.21919,-2.91428 4.0349,-5.4086 4.0349,-5.54295 0,-0.13434 -0.69857,-1.89836 -1.55238,-3.92004 -2.12572,-5.03334 -3.64974,-9.84624 -4.27387,-13.49703 -1.89556,-11.08784 1.57626,-22.53604 8.16919,-26.93761 2.30904,-1.54155 4.53401,-2.0798104 8.05025,-1.9474704 2.55856,0.0963 3.26354,0.2283504 5.10747,0.9567504 5.22642,2.06455 9.89687,6.52843 13.23195,12.64672 0.67445,1.23729 1.36138,2.19842 1.52651,2.13585 9.846,-3.73105 16.92474,-5.17916 27.552337,-5.63646 9.67015,-0.4161 20.4189,1.15893 29.10416,4.26466 1.89177,0.67647 3.60533,1.25022 3.80791,1.275 0.20886,0.0256 1.01069,-1.04915 1.85208,-2.48239 1.88436,-3.20983 3.23123,-4.99699 5.34171,-7.08792 2.77943,-2.75368 6.35894,-4.88806 9.6238,-5.73845 1.87132,-0.4874204 5.97982,-0.4992004 7.55263,-0.0217 5.47969,1.66377 9.17963,6.232 11.27441,13.92027 0.72743,2.66982 0.75662,3.00507 0.74883,8.59896 -0.007,5.11773 -0.0791,6.1039 -0.59593,8.16426 -0.85047,3.39051 -2.53438,8.2618 -4.17209,12.06919 l -1.42569,3.31447 0.72326,0.97327 c 1.88775,2.54033 7.879,10.41892 8.01214,10.5361 0.0827,0.0728 1.50576,1.91823 3.16242,4.10105 4.23559,5.58082 11.80733,15.512566 19.97578,26.201996 7.06111,9.240322 10.44916,13.746812 10.45011,13.899832 0.001,0.16816 -0.64509,0.43656 -7.93657,3.29676 -2.83765,1.11312 -5.51656,2.18064 -5.95312,2.37228 -0.43656,0.19163 -3.77031,1.50285 -7.40833,2.91383 -3.63802,1.41098 -6.97177,2.72435 -7.40834,2.91861 -0.43656,0.19426 -2.9964,1.21367 -5.68854,2.26537 -2.69214,1.05169 -9.53824,3.74997 -15.21355,5.99618 -17.13404,6.7814 -26.812,10.60071 -36.64479,14.46148 -3.56526,1.39987 -7.01807,2.77434 -7.67292,3.05438 -3.72148,1.59146 -8.1747,3.18266 -8.86354,3.16706 -0.43656,-0.01 -1.03188,-0.12593 -1.32292,-0.25788 z m 8.76035,-8.34438 c 3.62202,-1.39408 7.00221,-2.69811 7.51153,-2.89784 0.50932,-0.19974 6.22432,-2.39854 12.7,-4.88623 6.47568,-2.48769 12.19068,-4.68752 12.7,-4.88851 0.50932,-0.201 2.47385,-0.95883 4.36562,-1.68408 11.05452,-4.23797 17.72964,-6.80728 19.71146,-7.58708 2.6005,-1.02325 15.24233,-5.81797 15.96316,-6.05442 1.09887,-0.36046 0.18641,-0.83038 -2.18834,-1.12699 -3.44702,-0.43054 -4.35385,-0.62386 -4.08583,-0.87099 0.12809,-0.11811 1.42352,-0.54362 2.87873,-0.94557 2.83409,-0.78283 3.57188,-1.07615 3.57188,-1.42006 0,-0.11958 -1.0418,-0.61194 -2.31511,-1.09413 -2.32365,-0.87995 -2.91805,-1.19779 -2.68181,-1.43403 0.07,-0.07 2.85998,-0.25052 6.20007,-0.40128 6.08055,-0.27444 7.26351,-0.40826 7.26351,-0.8217 0,-0.1217 -0.38695,-0.33213 -0.85989,-0.46761 -0.47295,-0.13548 -2.88396,-1.16076 -5.35782,-2.27839 -5.96528,-2.69499 -5.85351,-2.6448 -7.64744,-3.43422 -0.85911,-0.37806 -1.48835,-0.76104 -1.39831,-0.85108 0.15466,-0.15466 5.71729,-0.851442 6.99523,-0.876232 0.92573,-0.018 0.71432,-0.43482 -0.79375,-1.56514 -4.87398,-3.65314 -6.68073,-5.1042 -6.68073,-5.36554 0,-0.20421 1.15836,-0.30648 3.70417,-0.32702 2.68511,-0.0217 3.70417,-0.11711 3.70417,-0.34694 0,-0.28531 -2.44037,-3.64399 -5.30848,-7.306016 -0.59132,-0.75502 -2.20697,-2.86104 -3.59032,-4.68005 -1.38335,-1.81901 -3.10219,-4.07408 -3.81965,-5.01127 -11.87336,-15.50968 -13.35749,-17.47274 -13.50962,-17.86918 -0.0811,-0.21135 0.20645,-1.01355 0.63902,-1.78265 1.58796,-2.82339 2.09163,-3.82913 3.08538,-6.16086 2.99715,-7.03259 4.64105,-13.88216 4.64322,-19.3468 0.002,-5.76174 -2.27952,-11.12733 -5.8452,-13.74478 -0.7273,-0.53389 -1.38494,-0.90812 -1.46143,-0.83163 -0.0765,0.0765 0.27986,0.77535 0.79189,1.55302 0.51204,0.77767 1.26103,2.36644 1.66443,3.53061 0.66379,1.91562 0.73252,2.45593 0.72361,5.68854 -0.0115,4.16744 -0.51111,6.46814 -2.35697,10.85372 -1.34722,3.20085 -5.54967,9.98674 -7.41984,11.98116 -0.68429,0.72974 -0.70771,0.7344 -1.39933,0.27793 -7.90922,-5.22006 -12.65299,-7.49399 -20.01797,-9.59566 -1.95187,-0.55698 -7.08369,-1.6109 -7.84393,-1.6109 -0.90893,0 -0.76915,-0.28004 -4.55614,9.12812 -2.42144,6.0157 -3.46025,8.51812 -4.39338,10.58334 -2.93294,6.49124 -4.76111,10.43848 -5.57565,12.03854 -1.94122,3.81328 -2.22798,4.98837 -2.22757,9.12812 5.3e-4,4.00506 0.27588,5.19502 1.99919,8.635676 0.73273,1.46292 3.27193,4.78619 4.58663,6.00292 0.80187,0.74212 1.04446,0.62393 1.69354,-0.82507 0.68907,-1.53829 2.47037,-3.83222 3.81586,-4.91401 1.58603,-1.275186 4.54071,-2.593156 6.62852,-2.956726 3.12171,-0.54363 8.88877,0.40094 14.60418,2.391966 5.1812,1.80493 11.87326,5.52348 15.73652,8.74426 2.17879,1.81643 4.5041,4.118752 4.5041,4.459542 0,0.14445 -0.38695,0.54609 -0.85989,0.89254 -1.36916,1.00294 -6.48083,4.7894 -12.63386,9.35851 -14.28595,10.60844 -14.55208,10.80014 -14.55208,10.48215 0,-0.12644 1.14182,-1.63195 2.53737,-3.34557 1.39555,-1.71363 2.46575,-3.1873 2.37821,-3.27484 -0.0875,-0.0875 -1.57794,0.52968 -3.31201,1.3716 -1.73407,0.84192 -3.26779,1.48821 -3.40826,1.4362 -0.14047,-0.052 0.20812,-0.90855 0.77464,-1.90342 0.56653,-0.99488 1.03005,-1.85808 1.03005,-1.91823 0,-0.31111 -0.69939,0.003 -2.32345,1.04421 -2.53322,1.62375 -3.54795,1.96079 -4.44997,1.47805 -0.38875,-0.20806 -1.95395,-1.68896 -3.47821,-3.29089 -2.928,-3.0772 -5.85738,-7.19508 -6.926,-9.73598 -0.35264,-0.83849 -0.76817,-1.4822 -0.9234,-1.43046 -0.30736,0.10245 -0.65533,1.04948 -2.15778,5.87258 -0.54398,1.74625 -1.62563,5.13298 -2.40367,7.52606 -0.77803,2.39309 -1.4146,4.56292 -1.4146,4.82185 0,0.26357 0.37848,0.66645 0.85989,0.91532 4.22676,2.18508 6.617,7.56221 5.39503,12.13677 -1.02904,3.85229 -3.70735,6.63135 -7.52834,7.81154 -2.12138,0.65522 -3.78797,0.66218 -5.83729,0.0244 -2.243817,-0.69835 -3.716237,-1.62842 -5.270807,-3.32938 -3.19152,-3.49203 -3.58864,-9.02557 -0.93467,-13.02394 0.90437,-1.3625 3.19894,-3.52113 3.74286,-3.52113 0.552427,0 1.125967,-0.84478 0.961987,-1.41694 -0.0894,-0.31209 -0.55843,-1.81759 -1.042177,-3.34556 -0.48375,-1.52797 -1.61137,-5.09984 -2.50582,-7.9375 -0.89445,-2.83765 -1.79983,-5.55267 -2.01196,-6.03337 -0.37109,-0.84094 -0.90996,-0.94726 -0.90996,-0.17954 0,0.20375 -0.51925,1.37956 -1.15389,2.61292 -2.28573,4.44207 -8.81255,11.80208 -10.46604,11.80208 -0.40971,0 -1.70177,-0.59239 -2.95461,-1.35465 -3.38501,-2.05951 -3.46329,-2.03662 -1.93763,0.56653 0.52268,0.89182 0.88028,1.69154 0.79466,1.77715 -0.0856,0.0856 -1.56505,-0.51861 -3.28765,-1.34273 -3.27704,-1.56778 -3.48442,-1.64318 -3.48442,-1.26676 0,0.22236 3.5782,4.78797 3.9657,5.06004 0.10363,0.0728 0.33431,0.40919 0.51264,0.74763 0.30779,0.58417 0.29455,0.59946 -0.26154,0.30185 -0.32217,-0.17241 -3.15892,-2.22405 -6.30389,-4.55919 -3.14496,-2.33513 -6.55155,-4.86206 -7.5702,-5.6154 -10.04103,-7.42583 -13.36146,-9.97646 -13.36146,-10.26378 0,-0.38619 2.60839,-2.973202 4.7625,-4.723482 8.35002,-6.78462 22.65065,-11.944996 29.98599,-10.820446 2.88464,0.44224 5.85083,2.01446 7.86727,4.170036 0.95484,1.02073 1.94133,2.42468 2.4,3.41565 0.42832,0.9254 0.8741,1.68255 0.99061,1.68255 0.43802,0 3.45762,-3.40365 4.58877,-5.17238 2.805647,-4.387086 3.695087,-8.847336 2.707897,-13.579306 -0.46254,-2.21712 -1.05009,-3.69757 -3.117587,-7.85538 -1.90458,-3.83018 -3.77619,-7.96891 -6.03486,-13.34502 -2.34465,-5.58074 -2.45296,-5.84262 -4.73263,-11.44323 -2.23723,-5.49632 -1.5247,-5.09127 -6.8923,-3.91808 -8.04499,1.75838 -13.76423,4.11467 -20.78835,8.56465 -1.76597,1.11879 -3.39289,2.03416 -3.61539,2.03416 -0.4687,0 -1.32258,-1.04428 -3.56967,-4.36562 -4.66752,-6.89892 -6.92651,-12.96313 -6.97602,-18.72697 -0.0345,-4.01382 1.06741,-7.77565 2.99561,-10.22696 0.67022,-0.85205 0.20957,-1.02734 -0.80369,-0.30584 -2.5309,1.80216 -4.89638,5.57749 -5.73853,9.15874 -0.86821,3.69208 -0.47055,10.09346 0.95285,15.33853 1.38033,5.08638 3.91859,11.26841 6.12807,14.92519 l 1.02477,1.69603 -0.92366,1.34668 c -0.50801,0.74067 -2.12236,2.89449 -3.58743,4.78626 -1.46508,1.89178 -3.84359,4.9874 -5.28557,6.87917 -1.44199,1.89177 -5.31254,6.95193 -8.60122,11.24479 -3.28869,4.29287 -6.52041,8.513616 -7.1816,9.379446 -1.19416,1.56375 -1.19809,1.57576 -0.58817,1.80139 0.33771,0.12492 2.07431,0.20151 3.85912,0.1702 2.83688,-0.0498 3.87532,0.0633 3.48242,0.37928 -0.0606,0.0488 -1.79671,1.36377 -3.85796,2.92223 -3.64815,2.7583 -4.50907,3.5049 -4.29195,3.72202 0.058,0.058 1.35492,0.23464 2.88197,0.392452 3.6859,0.38091 4.49624,0.52623 4.49624,0.80631 0,0.12912 -0.26789,0.31758 -0.59531,0.4188 -0.49687,0.1536 -6.78283,2.91831 -11.9724,5.26574 -0.7276,0.32912 -1.59736,0.68444 -1.93279,0.7896 -0.33543,0.10515 -0.56402,0.32991 -0.50797,0.49947 0.1029,0.31128 2.26699,0.49991 9.79243,0.85355 4.17177,0.19604 4.30735,0.37286 1.18455,1.54485 -2.38382,0.89464 -2.62589,1.01951 -2.61611,1.34946 0.004,0.14552 1.41249,0.67088 3.12928,1.16747 1.7168,0.4966 3.17105,0.94308 3.23169,0.99219 0.33105,0.26814 -0.57936,0.50576 -3.34074,0.87196 -2.95508,0.39189 -3.97932,0.84058 -2.81078,1.23132 0.82293,0.27518 10.22677,3.83467 11.06836,4.18954 0.97391,0.41066 1.56074,0.63655 19.57917,7.53631 5.38427,2.06179 10.2063,3.91624 10.71562,4.121 0.50932,0.20476 6.40292,2.46924 13.09688,5.03217 6.69395,2.56293 12.40895,4.76582 12.7,4.8953 0.29104,0.12948 1.66026,0.65216 3.0427,1.16151 1.38245,0.50934 4.00183,1.51928 5.820837,2.2443 1.81901,0.72502 3.67757,1.32529 4.13014,1.33393 0.45257,0.009 3.78632,-1.1249 7.40833,-2.51898 z M 85.281843,100.53817 c 1.42614,-0.904712 2.63324,-2.394202 3.13593,-3.869522 1.80053,-5.28427 -3.37973,-10.627156 -8.63659,-8.90773 -6.33287,2.07137 -6.80615,10.18109 -0.76922,13.180652 1.47058,0.73068 4.82211,0.51505 6.26988,-0.4034 z m 45.820947,0.17433 c 3.65195,-1.819842 5.01332,-6.062942 3.0831,-9.609392 -2.1001,-3.858576 -7.02716,-4.835866 -10.50851,-2.08439 -2.41402,1.90792 -3.26596,5.43453 -1.9763,8.18089 0.85513,1.82101 1.78935,2.77948 3.47357,3.563702 1.89788,0.88371 4.09051,0.86492 5.92814,-0.0508 z"
             style="fill:#e6e6e6;stroke-width:0.26458335" />
          <g
             id="Page-1"
             style="fill:#e6e6e6;fill-rule:evenodd;stroke:none;stroke-width:1"
             transform="matrix(1.9116247,0,0,1.9116247,51.474508,144.94979)">
            <g
               id="010---Bow-Tie"
               style="fill:#e6e6e6">
              <path
                 id="Shape"
                 d="M 55.98,1.57 C 56.048374,1.2129434 55.913682,0.84735171 55.63,0.62 55.312934,0.35819812 54.874387,0.29998388 54.5,0.47 L 33,9.66 v 1.12 l 3.8,-0.76 c 0.541239,-0.1104569 1.069543,0.238761 1.18,0.78 0.110457,0.541239 -0.238761,1.069543 -0.78,1.18 L 33,12.82 v 0.44 l 9.29,2.78 c 0.530193,0.160163 0.830162,0.719807 0.67,1.25 -0.160163,0.530193 -0.719807,0.830162 -1.25,0.67 L 33,15.34 v 1 l 21.5,9.19 c 0.374387,0.170016 0.812934,0.111802 1.13,-0.15 0.283682,-0.227352 0.418374,-0.592943 0.35,-0.95 -1.560004,-7.540157 -1.560004,-15.319843 0,-22.86 z m -12.66,8.38 -2,0.67 C 41.215958,10.6505 41.108386,10.6673 41,10.67 40.507263,10.6739 40.08515,10.318216 40.005355,9.8319674 39.92556,9.3457184 40.21187,8.8738159 40.68,8.72 l 2,-0.67 c 0.52467,-0.1767311 1.093269,0.1053295 1.27,0.63 0.176731,0.5246705 -0.10533,1.0932689 -0.63,1.27 z"
                 inkscape:connector-curvature="0"
                 style="fill-rule:nonzero;fill:#e6e6e6" />
              <path
                 id="path7"
                 d="M 1.05,0.38 C 0.80261393,0.38021436 0.56271509,0.46488454 0.37,0.62 0.08631782,0.84735171 -0.04837387,1.2129434 0.02,1.57 c 1.5600043,7.540157 1.5600043,15.319843 0,22.86 -0.06837387,0.357057 0.06631782,0.722648 0.35,0.95 0.31706589,0.261802 0.7556131,0.320016 1.13,0.15 L 23,16.34 v -1 l -8.71,2.62 c -0.530193,0.160163 -1.089837,-0.139807 -1.25,-0.67 -0.160163,-0.530193 0.139807,-1.089837 0.67,-1.25 L 23,13.26 V 12.82 L 18.8,11.98 C 18.258761,11.869543 17.909543,11.341239 18.02,10.8 18.130457,10.258761 18.658761,9.9095431 19.2,10.02 L 23,10.78 V 9.66 L 1.5,0.47 C 1.3571866,0.41133029 1.2043931,0.38077159 1.05,0.38 Z m 11,8.3 c 0.180518,-0.5213514 0.745681,-0.8017081 1.27,-0.63 l 2,0.67 c 0.46813,0.1538159 0.75444,0.6257184 0.674645,1.1119674 C 15.91485,10.318216 15.492738,10.673865 15,10.67 14.891614,10.6673 14.784042,10.6505 14.68,10.62 l -2,-0.67 C 12.158649,9.7694824 11.878292,9.2043188 12.05,8.68 Z"
                 inkscape:connector-curvature="0"
                 style="fill-rule:nonzero;fill:#e6e6e6" />
              <path
                 id="Path"
                 d="m 28,6 c -1.656854,0 -3,1.3431457 -3,3 v 8 c 0,1.656854 1.343146,3 3,3 1.656854,0 3,-1.343146 3,-3 V 9 C 31,7.3431457 29.656854,6 28,6 Z"
                 inkscape:connector-curvature="0"
                 style="fill:#e6e6e6" />
            </g>
          </g>
        </g>
        <g
           aria-label="GIM"
           style="font-style:normal;font-weight:normal;font-size:184.59080505px;line-height:1.25;font-family:sans-serif;letter-spacing:0px;word-spacing:0px;fill:#e6e6e6;fill-opacity:1;stroke:none;stroke-width:0.9614104"
           id="text844">
          <path
             d="m -1209.4492,218.36762 q -14.7673,0 -27.6886,-5.53772 -12.9214,-5.53773 -22.7047,-14.95186 -9.5987,-9.41413 -15.321,-22.15089 -5.5378,-12.73677 -5.5378,-27.13485 0,-14.39809 5.5378,-27.13485 5.7223,-12.73677 15.321,-22.150898 9.7833,-9.598721 22.7047,-15.136446 12.9213,-5.537724 27.6886,-5.537724 20.305,0 35.2568,8.306587 15.1365,8.306586 24.5506,22.889261 0.923,1.47672 0.3692,3.50722 -0.3692,1.84591 -1.8459,2.76887 l -22.1509,14.21349 q -1.4767,0.92295 -3.3226,0.73836 -1.8459,-0.36918 -3.1381,-1.84591 -5.7223,-7.01445 -12.9213,-11.26004 -7.0145,-4.24558 -16.7978,-4.24558 -7.0145,0 -13.2905,2.95345 -6.0915,2.76886 -10.7063,7.56822 -4.6148,4.79936 -7.3836,11.26004 -2.5843,6.27609 -2.5843,13.10595 0,7.01445 2.5843,13.29054 2.7688,6.27608 7.3836,11.07544 4.6148,4.61477 10.7063,7.56823 6.276,2.76886 13.2905,2.76886 7.0145,0 13.8443,-2.58427 6.8299,-2.58427 10.8909,-8.49118 0.9229,-1.47673 0.1846,-2.58427 -0.7384,-1.29214 -2.5843,-1.29214 h -21.228 q -1.8459,0 -3.138,-1.29213 -1.2921,-1.29214 -1.2921,-3.13805 v -21.9663 q 0,-1.84591 1.2921,-3.13805 1.2921,-1.29213 3.138,-1.29213 h 63.4993 q 1.8459,0 3.138,1.29213 1.4768,1.10755 1.6613,3.13805 0.3692,3.13804 0.3692,7.75281 0,4.43018 -0.5537,9.22954 -1.2922,12.73677 -7.1991,23.62763 -5.9069,10.89085 -15.321,18.82826 -9.2296,7.9374 -21.228,12.55217 -11.9984,4.43018 -25.4735,4.43018 z"
             style="font-style:normal;font-variant:normal;font-weight:normal;font-stretch:normal;font-family:'Heavitas [RUS by Daymarius]';-inkscape-font-specification:'Heavitas [RUS by Daymarius]';stroke-width:0.9614104;fill:#e6e6e6"
             id="path845" />
          <path
             d="m -1088.1413,215.96794 h -27.8732 q -2.0305,0 -3.3227,-1.29213 -1.1075,-1.29214 -1.1075,-3.13805 V 85.462242 q 0,-1.845908 1.1075,-3.138044 1.2922,-1.292135 3.3227,-1.292135 h 27.8732 q 1.8459,0 3.138,1.292135 1.2922,1.292136 1.2922,3.138044 V 211.53776 q 0,1.84591 -1.2922,3.13805 -1.2921,1.29213 -3.138,1.29213 z"
             style="font-style:normal;font-variant:normal;font-weight:normal;font-stretch:normal;font-family:'Heavitas [RUS by Daymarius]';-inkscape-font-specification:'Heavitas [RUS by Daymarius]';stroke-width:0.9614104;fill:#e6e6e6"
             id="path847" />
          <path
             d="M -908.3787,85.462242 V 211.53776 q 0,1.84591 -1.29213,3.13805 -1.29214,1.29213 -3.13805,1.29213 h -27.87321 q -1.84591,0 -3.13804,-1.29213 -1.29214,-1.29214 -1.29214,-3.13805 v -59.43824 q 0,-1.84591 -1.66131,-2.0305 -1.66132,-0.18459 -2.76887,1.29214 l -31.01125,50.02411 q -0.92296,1.47672 -2.95345,1.47672 -2.0305,0 -3.13805,-1.47672 l -31.0113,-50.02411 q -0.9229,-1.47673 -2.5842,-1.29214 -1.6613,0.18459 -1.6613,2.0305 v 59.43824 q 0,1.84591 -1.2922,3.13805 -1.2921,1.29213 -3.138,1.29213 h -27.8732 q -1.8459,0 -3.1381,-1.29213 -1.2921,-1.29214 -1.2921,-3.13805 V 85.462242 q 0,-1.845908 1.2921,-3.138044 1.2922,-1.292135 3.1381,-1.292135 h 25.8427 q 1.8459,0 3.8764,1.107545 2.0305,1.107544 2.9534,2.584271 l 35.44147,52.054611 q 1.10755,1.47672 2.58428,1.47672 1.47672,0 2.39968,-1.47672 l 35.44143,-52.054611 q 1.10755,-1.476727 3.13804,-2.584271 2.0305,-1.107545 3.87641,-1.107545 h 25.84271 q 1.84591,0 3.13805,1.292135 1.29213,1.292136 1.29213,3.138044 z"
             style="font-style:normal;font-variant:normal;font-weight:normal;font-stretch:normal;font-family:'Heavitas [RUS by Daymarius]';-inkscape-font-specification:'Heavitas [RUS by Daymarius]';stroke-width:0.9614104;fill:#e6e6e6"
             id="path849" />
        </g>
        <g
           aria-label="NET"
           style="font-style:normal;font-weight:normal;font-size:184.59080505px;line-height:1.25;font-family:sans-serif;letter-spacing:0px;word-spacing:0px;fill:#e6e6e6;fill-opacity:1;stroke:none;stroke-width:0.96141046"
           id="text844-6">
          <path
             d="M -536.69628,85.369952 V 211.63006 q 0,1.84591 -1.29214,3.13805 -1.29213,1.29213 -3.13804,1.29213 h -27.31944 q -1.84591,0 -3.87641,-1.10754 -2.0305,-1.10755 -3.13804,-2.58427 l -48.1782,-67.74483 q -1.10755,-1.47673 -2.39968,-1.10754 -1.10755,0.18459 -1.10755,2.03049 v 66.08351 q 0,1.84591 -1.29213,3.13805 -1.29214,1.29213 -3.13805,1.29213 h -27.50403 q -1.8459,0 -3.13804,-1.29213 -1.29213,-1.29214 -1.29213,-3.13805 V 85.369952 q 0,-1.845908 1.29213,-3.138044 1.29214,-1.292136 3.13804,-1.292136 h 27.68863 q 1.8459,0 3.8764,1.107545 2.0305,0.922954 3.13805,2.399681 l 47.99361,67.744822 q 1.10754,1.47673 2.21509,1.29214 1.29213,-0.18459 1.29213,-2.0305 V 85.369952 q 0,-1.845908 1.29214,-3.138044 1.29213,-1.292136 3.13804,-1.292136 h 27.31944 q 1.84591,0 3.13804,1.292136 1.29214,1.292136 1.29214,3.138044 z"
             style="font-style:normal;font-variant:normal;font-weight:normal;font-stretch:normal;font-family:'Heavitas [RUS by Daymarius]';-inkscape-font-specification:'Heavitas [RUS by Daymarius]';stroke-width:0.96141046;fill:#e6e6e6"
             id="path852" />
          <path
             d="m -472.66347,119.33466 v 7.75281 q 0,1.84591 1.29214,3.13805 1.29214,1.29213 3.13804,1.29213 h 50.02411 q 1.84591,0 3.13805,1.29214 1.29213,1.29213 1.29213,3.13804 v 25.47353 q 0,1.84591 -1.29213,3.13805 -1.29214,1.29213 -3.13805,1.29213 h -50.02411 q -1.8459,0 -3.13804,1.29214 -1.29214,1.29213 -1.29214,3.13804 v 7.01445 q 0,1.84591 1.29214,3.13805 1.29214,1.29213 3.13804,1.29213 h 57.40774 q 1.84591,0 3.13805,1.29214 1.29213,1.29213 1.29213,3.13804 v 25.47353 q 0,1.84591 -1.29213,3.13805 -1.29214,1.29213 -3.13805,1.29213 h -93.95672 q -1.8459,0 -3.13804,-1.29213 -1.29214,-1.29214 -1.29214,-3.13805 V 85.369952 q 0,-1.845908 1.29214,-3.138044 1.29214,-1.292136 3.13804,-1.292136 h 93.95672 q 1.84591,0 3.13805,1.292136 1.29213,1.292136 1.29213,3.138044 V 110.4743 q 0,1.84591 -1.29213,3.13804 -1.29214,1.29214 -3.13805,1.29214 h -57.40774 q -1.8459,0 -3.13804,1.29214 -1.29214,1.29213 -1.29214,3.13804 z"
             style="font-style:normal;font-variant:normal;font-weight:normal;font-stretch:normal;font-family:'Heavitas [RUS by Daymarius]';-inkscape-font-specification:'Heavitas [RUS by Daymarius]';stroke-width:0.96141046;fill:#e6e6e6"
             id="path854" />
          <path
             d="m -294.60257,114.90448 h -25.84271 q -1.84591,0 -3.13804,1.29214 -1.29214,1.29213 -1.29214,3.13804 v 92.2954 q 0,1.84591 -1.29213,3.13805 -1.10755,1.29213 -3.13805,1.29213 h -27.68862 q -1.84591,0 -3.13804,-1.29213 -1.29214,-1.29214 -1.29214,-3.13805 v -92.2954 q 0,-1.84591 -1.29213,-3.13804 -1.10755,-1.29214 -3.13805,-1.29214 h -26.21189 q -1.84591,0 -3.13804,-1.29214 -1.29214,-1.29213 -1.29214,-3.13804 V 85.369952 q 0,-1.845908 1.29214,-3.138044 1.29213,-1.292136 3.13804,-1.292136 h 97.46394 q 2.0305,0 3.13805,1.292136 1.29213,1.292136 1.29213,3.138044 V 110.4743 q 0,1.84591 -1.29213,3.13804 -1.10755,1.29214 -3.13805,1.29214 z"
             style="font-style:normal;font-variant:normal;font-weight:normal;font-stretch:normal;font-family:'Heavitas [RUS by Daymarius]';-inkscape-font-specification:'Heavitas [RUS by Daymarius]';stroke-width:0.96141046;fill:#e6e6e6"
             id="path856" />
        </g>
      </g>
      <g
         aria-label="ДЕЛОВАЯ СОЦИАЛЬНАЯ СЕТЬ"
         style="font-style:normal;font-weight:normal;font-size:57.81099319px;line-height:1.25;font-family:sans-serif;letter-spacing:0px;word-spacing:0px;fill:#e6e6e6;fill-opacity:1;stroke:none;stroke-width:0.30109894"
         id="text888">
        <path
           d="m -1394.6897,447.55381 17.5167,-38.96461 h 1.8499 l 17.459,38.96461 h 4.0467 v 10.11692 h -1.9077 v -8.32478 h -41.0458 v 8.32478 h -1.9078 v -10.11692 z m 2.0812,0 h 32.6054 l -16.3027,-36.47874 z"
           style="font-style:normal;font-variant:normal;font-weight:normal;font-stretch:normal;font-family:Gotham;-inkscape-font-specification:Gotham;stroke-width:0.30109894;fill:#e6e6e6"
           id="path859" />
        <path
           d="m -1345.7437,408.87825 h 28.5008 v 1.79214 h -26.5352 v 17.40111 h 23.9915 v 1.79214 h -23.9915 v 17.69017 h 26.8243 v 1.79214 h -28.7899 z"
           style="font-style:normal;font-variant:normal;font-weight:normal;font-stretch:normal;font-family:Gotham;-inkscape-font-specification:Gotham;stroke-width:0.30109894;fill:#e6e6e6"
           id="path861" />
        <path
           d="m -1271.742,449.34595 h -2.1968 l -17.5746,-38.21307 -17.4589,38.21307 h -2.0812 l 18.7308,-40.75675 h 1.6765 z"
           style="font-style:normal;font-variant:normal;font-weight:normal;font-stretch:normal;font-family:Gotham;-inkscape-font-specification:Gotham;stroke-width:0.30109894;fill:#e6e6e6"
           id="path863" />
        <path
           d="m -1245.0469,450.03968 q -4.6249,0 -8.3248,-1.67652 -3.6999,-1.73433 -6.3592,-4.62488 -2.6593,-2.89055 -4.1045,-6.64826 -1.3875,-3.75772 -1.3875,-7.92011 v -0.11562 q 0,-4.16239 1.4453,-7.92011 1.4452,-3.75771 4.0467,-6.64826 2.6593,-2.89055 6.3592,-4.56707 3.7578,-1.73433 8.3826,-1.73433 4.5671,0 8.267,1.73433 3.7577,1.67652 6.417,4.56707 2.6593,2.89055 4.0468,6.64826 1.4453,3.75772 1.4453,7.92011 v 0.11562 q 0,4.16239 -1.4453,7.92011 -1.4453,3.75771 -4.1046,6.64826 -2.6015,2.89055 -6.3592,4.62488 -3.7577,1.67652 -8.3248,1.67652 z m 0.1156,-1.79214 q 4.0468,0 7.342,-1.50309 3.3531,-1.56089 5.7233,-4.16239 2.3703,-2.60149 3.6999,-6.07015 1.3297,-3.46866 1.3297,-7.28419 v -0.11562 q 0,-3.81553 -1.3297,-7.28419 -1.3296,-3.46866 -3.7577,-6.07015 -2.3702,-2.65931 -5.7233,-4.2202 -3.353,-1.5609 -7.3998,-1.5609 -4.0467,0 -7.3998,1.5609 -3.353,1.50308 -5.7233,4.10458 -2.3702,2.60149 -3.6999,6.07015 -1.3296,3.46866 -1.3296,7.28419 v 0.11562 q 0,3.81553 1.3296,7.28418 1.3297,3.46866 3.7577,6.12797 2.4281,2.60149 5.7811,4.16239 3.3531,1.5609 7.3998,1.5609 z"
           style="font-style:normal;font-variant:normal;font-weight:normal;font-stretch:normal;font-family:Gotham;-inkscape-font-specification:Gotham;stroke-width:0.30109894;fill:#e6e6e6"
           id="path865" />
        <path
           d="m -1214.5398,408.87825 h 16.6495 q 3.4687,0 6.1858,0.92498 2.7171,0.92497 4.3936,2.60149 2.6015,2.6015 2.6015,6.53264 v 0.11563 q 0,1.96557 -0.5781,3.52647 -0.5781,1.56089 -1.6187,2.77493 -0.9828,1.21403 -2.3702,2.08119 -1.3297,0.80935 -2.8906,1.21403 1.9656,0.34687 3.6999,1.21403 1.7922,0.80936 3.1218,2.0812 1.3297,1.21403 2.0812,2.89055 0.7515,1.61871 0.7515,3.6999 v 0.11562 q 0,5.08737 -3.8733,7.92011 -3.8155,2.77493 -10.6372,2.77493 h -17.5167 z m 17.0542,19.13544 q 2.2546,0 4.2202,-0.5203 1.9656,-0.57811 3.4109,-1.67652 1.503,-1.09841 2.3124,-2.71711 0.8672,-1.67652 0.8672,-3.87334 v -0.11562 q 0,-3.81553 -2.9484,-6.12797 -2.9484,-2.31244 -8.3248,-2.31244 h -14.6262 v 17.3433 z m 0.5203,19.54012 q 5.8967,0 9.1341,-2.31244 3.2953,-2.37025 3.2953,-6.53265 v -0.11562 q 0,-2.139 -0.925,-3.75771 -0.8672,-1.61871 -2.4859,-2.71712 -1.6187,-1.15622 -3.8733,-1.73433 -2.2547,-0.57811 -4.914,-0.57811 h -15.8402 v 17.74798 z"
           style="font-style:normal;font-variant:normal;font-weight:normal;font-stretch:normal;font-family:Gotham;-inkscape-font-specification:Gotham;stroke-width:0.30109894;fill:#e6e6e6"
           id="path867" />
        <path
           d="m -1157.1561,408.5892 h 1.85 l 19.1932,40.75675 h -2.139 l -5.492,-11.79345 h -25.0322 l -5.5499,11.79345 h -2.0233 z m 12.545,27.17116 -11.6778,-24.85872 -11.62,24.85872 z"
           style="font-style:normal;font-variant:normal;font-weight:normal;font-stretch:normal;font-family:Gotham;-inkscape-font-specification:Gotham;stroke-width:0.30109894;fill:#e6e6e6"
           id="path869" />
        <path
           d="m -1097.9929,449.34595 h -1.9656 v -17.28549 h -14.048 l -13.47,17.28549 h -2.4859 l 13.5856,-17.40111 q -2.8905,-0.17343 -5.2608,-1.0406 -2.3702,-0.86716 -4.0467,-2.31244 -1.6766,-1.50309 -2.6015,-3.52647 -0.925,-2.0812 -0.925,-4.62488 v -0.11562 q 0,-2.48587 0.9828,-4.56707 0.9828,-2.13901 2.8905,-3.64209 1.9078,-1.50309 4.6249,-2.37025 2.7749,-0.86717 6.3014,-0.86717 h 16.4183 z m -16.4761,-38.67556 q -6.128,0 -9.481,2.71712 -3.2952,2.71712 -3.2952,7.05294 v 0.0578 q 0,4.56707 3.4686,7.16856 3.4687,2.6015 9.481,2.6015 h 14.3371 v -19.59793 z"
           style="font-style:normal;font-variant:normal;font-weight:normal;font-stretch:normal;font-family:Gotham;-inkscape-font-specification:Gotham;stroke-width:0.30109894;fill:#e6e6e6"
           id="path871" />
        <path
           d="m -1051.24,450.03968 q -4.2781,0 -7.9202,-1.61871 -3.642,-1.67652 -6.3013,-4.45145 -2.6594,-2.83273 -4.1624,-6.59045 -1.5031,-3.81552 -1.5031,-8.15135 v -0.11562 q 0,-4.27801 1.5031,-8.03573 1.503,-3.81552 4.1624,-6.64826 2.6593,-2.89055 6.3013,-4.56707 3.7,-1.67652 8.0358,-1.67652 2.8327,0 5.0295,0.5203 2.2547,0.46249 4.1046,1.32965 1.85,0.86717 3.3531,2.02339 1.5608,1.15622 3.0639,2.54368 l -1.3874,1.44528 q -1.2719,-1.21404 -2.7171,-2.31244 -1.3875,-1.09841 -3.1218,-1.90777 -1.7344,-0.86716 -3.8156,-1.32965 -2.0234,-0.5203 -4.567,-0.5203 -3.8734,0 -7.1686,1.50309 -3.2374,1.50308 -5.6655,4.10458 -2.3702,2.60149 -3.7577,6.07015 -1.3296,3.46866 -1.3296,7.39981 v 0.11562 q 0,3.93115 1.3296,7.39981 1.3875,3.46866 3.8155,6.07015 2.4281,2.6015 5.7233,4.10458 3.2953,1.50309 7.1108,1.50309 4.7405,0 8.2091,-1.84995 3.4687,-1.84996 6.1858,-4.62488 l 1.3875,1.32965 q -1.4453,1.44527 -3.1218,2.71712 -1.6187,1.27184 -3.5843,2.19681 -1.9656,0.92498 -4.278,1.44528 -2.2546,0.57811 -4.9139,0.57811 z"
           style="font-style:normal;font-variant:normal;font-weight:normal;font-stretch:normal;font-family:Gotham;-inkscape-font-specification:Gotham;stroke-width:0.30109894;fill:#e6e6e6"
           id="path873" />
        <path
           d="m -1008.6089,450.03968 q -4.6249,0 -8.3248,-1.67652 -3.6999,-1.73433 -6.3592,-4.62488 -2.6593,-2.89055 -4.1046,-6.64826 -1.3875,-3.75772 -1.3875,-7.92011 v -0.11562 q 0,-4.16239 1.4453,-7.92011 1.4453,-3.75771 4.0468,-6.64826 2.6593,-2.89055 6.3592,-4.56707 3.7577,-1.73433 8.3826,-1.73433 4.567,0 8.2669,1.73433 3.75775,1.67652 6.41705,4.56707 2.65931,2.89055 4.04677,6.64826 1.44528,3.75772 1.44528,7.92011 v 0.11562 q 0,4.16239 -1.44528,7.92011 -1.44527,3.75771 -4.10458,6.64826 -2.60149,2.89055 -6.35924,4.62488 -3.7577,1.67652 -8.3247,1.67652 z m 0.1156,-1.79214 q 4.0467,0 7.342,-1.50309 3.35301,-1.56089 5.72326,-4.16239 2.37025,-2.60149 3.6999,-6.07015 1.32965,-3.46866 1.32965,-7.28419 v -0.11562 q 0,-3.81553 -1.32965,-7.28419 -1.32965,-3.46866 -3.75771,-6.07015 -2.37025,-2.65931 -5.72325,-4.2202 -3.3531,-1.5609 -7.3998,-1.5609 -4.0468,0 -7.3999,1.5609 -3.353,1.50308 -5.7232,4.10458 -2.3703,2.60149 -3.6999,6.07015 -1.3297,3.46866 -1.3297,7.28419 v 0.11562 q 0,3.81553 1.3297,7.28418 1.3296,3.46866 3.7577,6.12797 2.428,2.60149 5.7811,4.16239 3.353,1.5609 7.3998,1.5609 z"
           style="font-style:normal;font-variant:normal;font-weight:normal;font-stretch:normal;font-family:Gotham;-inkscape-font-specification:Gotham;stroke-width:0.30109894;fill:#e6e6e6"
           id="path875" />
        <path
           d="m -944.51373,449.34595 h -33.58818 v -40.4677 h 1.96557 v 38.67556 h 27.51803 v -38.67556 h 1.96558 v 38.67556 h 4.04677 v 10.11692 h -1.90777 z"
           style="font-style:normal;font-variant:normal;font-weight:normal;font-stretch:normal;font-family:Gotham;-inkscape-font-specification:Gotham;stroke-width:0.30109894;fill:#e6e6e6"
           id="path877" />
        <path
           d="m -902.50679,449.34595 v -37.40372 l -29.77266,37.40372 h -1.5609 v -40.4677 h 1.96558 v 37.11466 l 29.54141,-37.11466 h 1.79214 v 40.4677 z"
           style="font-style:normal;font-variant:normal;font-weight:normal;font-stretch:normal;font-family:Gotham;-inkscape-font-specification:Gotham;stroke-width:0.30109894;fill:#e6e6e6"
           id="path879" />
        <path
           d="m -873.06926,408.5892 h 1.84995 l 19.19325,40.75675 h -2.13901 l -5.49204,-11.79345 h -25.03216 l -5.54986,11.79345 h -2.02338 z m 12.54498,27.17116 -11.67782,-24.85872 -11.62001,24.85872 z"
           style="font-style:normal;font-variant:normal;font-weight:normal;font-stretch:normal;font-family:Gotham;-inkscape-font-specification:Gotham;stroke-width:0.30109894;fill:#e6e6e6"
           id="path881" />
        <path
           d="m -808.12493,449.34595 h -2.19681 l -17.57454,-38.21307 -17.45892,38.21307 h -2.0812 l 18.73076,-40.75675 h 1.67652 z"
           style="font-style:normal;font-variant:normal;font-weight:normal;font-stretch:normal;font-family:Gotham;-inkscape-font-specification:Gotham;stroke-width:0.30109894;fill:#e6e6e6"
           id="path883" />
        <path
           d="m -799.81371,408.87825 h 1.96558 v 16.07146 h 12.60279 q 3.52647,0 6.35921,0.80935 2.83274,0.80936 4.79832,2.37025 1.96557,1.5609 3.00617,3.81553 1.04059,2.19682 1.04059,4.97174 v 0.11563 q 0,3.00617 -1.21403,5.31861 -1.15622,2.31244 -3.29522,3.87333 -2.0812,1.5609 -4.97175,2.37025 -2.89055,0.75155 -6.3014,0.75155 h -13.99026 z m 14.04807,38.67556 q 3.1218,0 5.60767,-0.69374 2.54368,-0.69373 4.33583,-2.02338 1.84995,-1.38746 2.83273,-3.29523 0.98279,-1.96557 0.98279,-4.39363 v -0.11562 q 0,-4.91394 -3.52647,-7.57324 -3.52647,-2.71712 -9.77006,-2.71712 h -12.54498 v 20.81196 z"
           style="font-style:normal;font-variant:normal;font-weight:normal;font-stretch:normal;font-family:Gotham;-inkscape-font-specification:Gotham;stroke-width:0.30109894;fill:#e6e6e6"
           id="path885" />
        <path
           d="m -761.08482,408.87825 h 1.96557 v 19.19325 h 27.69146 v -19.19325 h 1.96558 v 40.4677 h -1.96558 v -19.48231 h -27.69146 v 19.48231 h -1.96557 z"
           style="font-style:normal;font-variant:normal;font-weight:normal;font-stretch:normal;font-family:Gotham;-inkscape-font-specification:Gotham;stroke-width:0.30109894;fill:#e6e6e6"
           id="path887" />
        <path
           d="m -701.89452,408.5892 h 1.84995 l 19.19325,40.75675 h -2.139 l -5.49205,-11.79345 h -25.03216 l -5.54985,11.79345 h -2.02339 z m 12.54499,27.17116 -11.67782,-24.85872 -11.62001,24.85872 z"
           style="font-style:normal;font-variant:normal;font-weight:normal;font-stretch:normal;font-family:Gotham;-inkscape-font-specification:Gotham;stroke-width:0.30109894;fill:#e6e6e6"
           id="path889" />
        <path
           d="m -642.73128,449.34595 h -1.96557 v -17.28549 h -14.04808 l -13.46996,17.28549 h -2.48587 l 13.58558,-17.40111 q -2.89055,-0.17343 -5.2608,-1.0406 -2.37025,-0.86716 -4.04677,-2.31244 -1.67652,-1.50309 -2.60149,-3.52647 -0.92498,-2.0812 -0.92498,-4.62488 v -0.11562 q 0,-2.48587 0.98279,-4.56707 0.98279,-2.13901 2.89055,-3.64209 1.90776,-1.50309 4.62488,-2.37025 2.77493,-0.86717 6.3014,-0.86717 h 16.41832 z m -16.47613,-38.67556 q -6.12797,0 -9.48101,2.71712 -3.29522,2.71712 -3.29522,7.05294 v 0.0578 q 0,4.56707 3.46866,7.16856 3.46866,2.6015 9.481,2.6015 h 14.33713 v -19.59793 z"
           style="font-style:normal;font-variant:normal;font-weight:normal;font-stretch:normal;font-family:Gotham;-inkscape-font-specification:Gotham;stroke-width:0.30109894;fill:#e6e6e6"
           id="path891" />
        <path
           d="m -595.97845,450.03968 q -4.27801,0 -7.9201,-1.61871 -3.6421,-1.67652 -6.3014,-4.45145 -2.65931,-2.83273 -4.16239,-6.59045 -1.50309,-3.81552 -1.50309,-8.15135 v -0.11562 q 0,-4.27801 1.50309,-8.03573 1.50308,-3.81552 4.16239,-6.64826 2.6593,-2.89055 6.3014,-4.56707 3.6999,-1.67652 8.03572,-1.67652 2.83274,0 5.02956,0.5203 2.25463,0.46249 4.10458,1.32965 1.84995,0.86717 3.35304,2.02339 1.5609,1.15622 3.06398,2.54368 l -1.38746,1.44528 q -1.27184,-1.21404 -2.71712,-2.31244 -1.38746,-1.09841 -3.12179,-1.90777 -1.73433,-0.86716 -3.81553,-1.32965 -2.02338,-0.5203 -4.56707,-0.5203 -3.87333,0 -7.16856,1.50309 -3.23742,1.50308 -5.66548,4.10458 -2.37025,2.60149 -3.75771,6.07015 -1.32966,3.46866 -1.32966,7.39981 v 0.11562 q 0,3.93115 1.32966,7.39981 1.38746,3.46866 3.81552,6.07015 2.42807,2.6015 5.72329,4.10458 3.29523,1.50309 7.11075,1.50309 4.74051,0 8.20916,-1.84995 3.46866,-1.84996 6.18578,-4.62488 l 1.38746,1.32965 q -1.44527,1.44527 -3.12179,2.71712 -1.61871,1.27184 -3.58428,2.19681 -1.96557,0.92498 -4.27801,1.44528 -2.25463,0.57811 -4.91394,0.57811 z"
           style="font-style:normal;font-variant:normal;font-weight:normal;font-stretch:normal;font-family:Gotham;-inkscape-font-specification:Gotham;stroke-width:0.30109894;fill:#e6e6e6"
           id="path893" />
        <path
           d="m -571.73125,408.87825 h 28.50082 v 1.79214 h -26.53524 v 17.40111 h 23.99156 v 1.79214 h -23.99156 v 17.69017 h 26.8243 v 1.79214 h -28.78988 z"
           style="font-style:normal;font-variant:normal;font-weight:normal;font-stretch:normal;font-family:Gotham;-inkscape-font-specification:Gotham;stroke-width:0.30109894;fill:#e6e6e6"
           id="path895" />
        <path
           d="m -522.76176,410.67039 h -14.39494 v -1.79214 h 30.81326 v 1.79214 h -14.45275 v 38.67556 h -1.96557 z"
           style="font-style:normal;font-variant:normal;font-weight:normal;font-stretch:normal;font-family:Gotham;-inkscape-font-specification:Gotham;stroke-width:0.30109894;fill:#e6e6e6"
           id="path897" />
        <path
           d="m -498.45134,408.87825 h 1.96557 v 16.07146 h 12.6028 q 3.52647,0 6.35921,0.80935 2.83274,0.80936 4.79831,2.37025 1.96557,1.5609 3.00617,3.81553 1.0406,2.19682 1.0406,4.97174 v 0.11563 q 0,3.00617 -1.21403,5.31861 -1.15622,2.31244 -3.29523,3.87333 -2.08119,1.5609 -4.97174,2.37025 -2.89055,0.75155 -6.3014,0.75155 h -13.99026 z m 14.04807,38.67556 q 3.12179,0 5.60767,-0.69374 2.54368,-0.69373 4.33582,-2.02338 1.84995,-1.38746 2.83274,-3.29523 0.98279,-1.96557 0.98279,-4.39363 v -0.11562 q 0,-4.91394 -3.52647,-7.57324 -3.52647,-2.71712 -9.77006,-2.71712 h -12.54499 v 20.81196 z"
           style="font-style:normal;font-variant:normal;font-weight:normal;font-stretch:normal;font-family:Gotham;-inkscape-font-specification:Gotham;stroke-width:0.30109894;fill:#e6e6e6"
           id="path899" />
      </g>
    </g>
  </g>
</svg>
